<svg width="28" height="25" viewBox="0 0 28 25" fill="none" xmlns="http://www.w3.org/2000/svg">
<path d="M26.2031 10.8611H6.1318L14.9006 2.82126C15.6014 2.17873 15.6014 1.12433 14.9006 0.481802C14.7344 0.329073 14.5369 0.207903 14.3196 0.125229C14.1022 0.0425546 13.8692 0 13.6338 0C13.3985 0 13.1655 0.0425546 12.9481 0.125229C12.7307 0.207903 12.5333 0.329073 12.367 0.481802L0.525491 11.3389C0.358913 11.4913 0.226756 11.6723 0.136585 11.8716C0.0464141 12.0709 0 12.2846 0 12.5003C0 12.7161 0.0464141 12.9298 0.136585 13.1291C0.226756 13.3284 0.358913 13.5094 0.525491 13.6618L12.367 24.5189C12.5334 24.6714 12.7309 24.7924 12.9482 24.875C13.1656 24.9575 13.3986 25 13.6338 25C13.8691 25 14.1021 24.9575 14.3194 24.875C14.5368 24.7924 14.7343 24.6714 14.9006 24.5189C15.067 24.3664 15.199 24.1853 15.289 23.986C15.379 23.7867 15.4254 23.5731 15.4254 23.3574C15.4254 23.1417 15.379 22.9281 15.289 22.7288C15.199 22.5295 15.067 22.3484 14.9006 22.1959L6.1318 14.1561H26.2031C27.1914 14.1561 28 13.4147 28 12.5086C28 11.6025 27.1914 10.8611 26.2031 10.8611Z" fill="white"/>
</svg>
